<?xml version="1.0" standalone="no"?>
<!DOCTYPE svg PUBLIC "-//W3C//DTD SVG 20010904//EN"
 "http://www.w3.org/TR/2001/REC-SVG-20010904/DTD/svg10.dtd">
<svg version="1.0" xmlns="http://www.w3.org/2000/svg"
 width="1000.000000pt" height="556.000000pt" viewBox="0 0 1000.000000 556.000000"
 preserveAspectRatio="xMidYMid meet">

<g transform="translate(0.000000,556.000000) scale(0.100000,-0.100000)"
fill="#000000" stroke="none">
<path d="M4020 5481 c-390 -137 -624 -223 -875 -321 -115 -45 -264 -102 -330
-127 -66 -25 -129 -49 -140 -54 -49 -21 -113 -42 -142 -46 -18 -3 -33 -10 -33
-15 0 -6 -7 -7 -15 -4 -9 3 -64 -7 -123 -23 -59 -16 -127 -34 -152 -39 -25 -6
-65 -16 -90 -22 -76 -20 -223 -52 -262 -57 -21 -3 -38 -9 -38 -14 0 -12 -37
-12 -45 0 -3 5 -20 7 -39 4 -18 -3 -127 2 -242 11 -237 19 -679 36 -921 36
-90 0 -163 4 -163 8 0 10 -232 32 -332 32 l-66 0 -7 -74 c-4 -41 -5 -79 -1
-84 3 -5 165 -7 413 -4 579 7 1150 -19 1436 -64 154 -24 304 -76 372 -128 18
-14 10 -15 -97 -14 -64 0 -122 -3 -128 -7 -8 -5 -1 -19 23 -44 32 -33 97 -151
97 -176 0 -16 185 -107 207 -103 19 4 20 11 8 68 -4 19 -7 54 -7 78 1 23 -3
42 -8 42 -5 0 -21 10 -35 22 -23 20 -24 23 -8 40 9 10 19 18 23 18 4 0 23 -24
44 -53 l36 -54 3 -150 2 -150 275 -7 c151 -4 284 -10 296 -12 20 -5 20 -5 5
61 -11 47 -17 61 -22 48 -4 -10 -5 -34 -3 -53 4 -26 3 -31 -5 -20 -6 8 -11 29
-11 47 0 17 -4 34 -9 37 -5 4 -54 1 -109 -5 -104 -12 -171 -4 -102 12 19 4 68
11 108 15 132 12 90 40 -50 32 -48 -3 -83 -10 -88 -17 -5 -10 -9 -9 -13 2 -3
9 1 21 9 27 20 18 262 44 288 32 12 -5 34 -15 50 -21 l28 -12 -21 -18 c-27
-24 -27 -31 4 -31 14 0 25 -6 26 -12 0 -7 4 -4 9 8 9 22 46 34 104 34 50 0 54
-8 52 -100 l-1 -85 130 -12 c134 -13 251 -29 295 -40 23 -6 21 -2 -18 42 -23
26 -42 52 -42 56 0 19 67 9 86 -12 10 -11 27 -25 36 -30 29 -16 396 -31 434
-19 48 16 124 3 124 -21 0 -18 6 -20 105 -33 22 -3 55 -9 74 -12 22 -5 32 -4
28 3 -8 12 69 23 166 23 53 0 67 -3 67 -15 0 -10 10 -15 30 -15 17 0 30 5 30
10 0 6 14 10 31 10 35 0 91 -29 86 -44 -2 -6 -26 -21 -53 -35 -57 -29 -62 -28
125 -40 159 -11 181 -8 157 18 -15 17 -21 39 -18 74 2 21 22 23 22 2 0 -11 11
-15 40 -15 29 0 40 -4 40 -15 0 -24 61 -20 67 4 5 20 59 27 258 34 78 2 108
18 83 43 -20 20 -200 41 -327 39 -85 -1 -113 2 -143 16 -20 10 -39 23 -43 29
-11 17 57 11 79 -7 20 -17 20 -17 7 0 -12 15 -11 17 12 17 14 0 29 -4 32 -10
8 -14 112 -13 121 1 4 8 72 10 220 7 l213 -3 -26 -21 -27 -21 29 -46 c29 -46
30 -46 74 -40 25 3 63 12 85 18 37 11 41 15 38 43 -4 37 8 42 110 48 39 2 75
8 78 14 4 7 58 10 151 8 l144 -3 -81 -47 c-83 -49 -109 -57 -116 -36 -3 9 -20
8 -69 -4 -35 -9 -91 -22 -124 -29 -33 -6 -70 -18 -83 -26 -13 -8 -31 -13 -40
-12 -29 3 -42 -1 -42 -11 0 -5 7 -10 16 -10 8 0 12 -5 8 -11 -4 -6 -20 -9 -39
-6 -20 3 -41 0 -53 -9 -13 -9 -46 -13 -95 -13 -41 0 -110 -6 -153 -15 -262
-52 -508 -64 -806 -38 -81 6 -272 12 -425 12 -249 -1 -276 -2 -258 -16 11 -8
92 -60 180 -115 88 -55 196 -122 239 -150 68 -44 80 -49 88 -35 12 22 65 20
113 -4 24 -12 59 -20 91 -20 43 0 54 -4 59 -19 8 -26 -4 -51 -25 -51 -29 0
-50 -11 -60 -31 -9 -15 -1 -24 49 -58 32 -22 113 -67 179 -99 67 -33 150 -80
184 -104 35 -24 87 -52 117 -61 l54 -17 136 83 c252 155 454 272 691 399 33
17 45 30 44 45 0 12 3 20 7 17 12 -7 59 18 59 33 0 7 6 13 13 13 6 0 47 18 89
40 43 22 85 37 93 34 9 -4 15 0 15 10 0 9 4 16 8 16 19 0 211 151 262 206 61
66 100 118 100 134 0 5 4 10 9 10 4 0 18 39 31 88 12 48 26 98 31 112 4 14 10
72 12 130 3 80 9 116 25 154 33 73 27 69 -33 -24 -82 -128 -66 -75 24 80 44
74 85 147 92 163 7 15 18 27 24 27 34 0 318 -148 483 -253 61 -38 62 -40 42
-54 -11 -8 -18 -18 -15 -23 5 -9 -90 -140 -102 -140 -5 0 3 14 35 60 21 31 20
30 -9 -5 -89 -104 -82 -100 -111 -81 -23 15 -38 16 -115 8 -48 -5 -123 -22
-165 -37 -63 -23 -81 -34 -101 -64 -13 -20 -81 -107 -150 -194 -69 -86 -131
-173 -138 -192 -7 -19 -21 -37 -30 -40 -14 -5 -76 -55 -67 -55 2 0 50 19 108
43 l105 43 19 57 c22 65 33 70 16 7 -6 -23 -9 -45 -5 -48 8 -8 235 68 235 79
0 11 94 59 114 59 8 0 16 -6 19 -12 3 -9 10 -7 21 7 13 16 15 17 10 3 -8 -22
-10 -22 106 6 l95 23 42 64 c24 35 46 63 50 62 13 -3 73 60 73 76 0 10 -14 1
-36 -24 -34 -39 -34 -38 7 25 90 136 273 303 432 394 144 82 390 143 477 118
30 -9 31 -10 10 -11 -15 -1 -30 -5 -35 -10 -6 -5 -39 -11 -75 -13 -39 -3 -91
-15 -129 -31 -71 -29 -167 -90 -150 -96 5 -1 58 8 117 22 59 14 141 30 182 36
41 6 90 14 108 17 20 4 32 2 32 -5 0 -6 -6 -11 -14 -11 -22 0 -40 -27 -24 -36
24 -16 112 -44 136 -44 13 0 20 -4 17 -10 -3 -5 -24 -10 -47 -10 -36 0 -39 -2
-27 -16 11 -14 10 -18 -6 -30 -24 -18 -51 -14 -47 8 4 24 -49 41 -100 33 -24
-4 -79 -22 -122 -41 -44 -19 -87 -34 -95 -34 -63 0 -271 -142 -405 -274 -97
-97 -100 -101 -73 -104 15 -2 67 2 115 8 48 7 207 14 353 17 280 6 422 -2 676
-38 79 -11 172 -22 208 -24 l66 -4 -6 34 c-3 19 -8 52 -11 72 -5 30 -20 51
-70 99 -35 34 -64 67 -64 73 0 7 5 9 11 6 20 -13 69 -12 69 1 0 7 -5 16 -10
19 -6 4 -8 15 -5 25 3 10 1 21 -5 25 -5 3 -10 -1 -10 -9 0 -9 -4 -16 -10 -16
-13 0 -13 37 0 45 14 9 2 51 -28 104 -18 32 -20 43 -9 38 17 -6 42 19 75 74
20 32 69 59 109 59 11 0 47 -77 46 -97 -1 -17 9 -16 52 4 35 17 37 20 39 57 1
14 14 22 49 31 26 7 59 22 72 35 14 13 28 21 31 17 10 -10 24 -287 18 -367 -7
-110 -14 -160 -22 -160 -4 0 -4 37 0 83 15 182 6 343 -21 370 -22 22 -56 -14
-82 -88 -10 -28 -11 -29 -24 -12 -13 18 -16 18 -74 -3 -55 -21 -61 -26 -67
-57 -12 -62 30 -469 50 -489 13 -14 137 -45 148 -38 4 3 8 20 8 39 0 19 5 37
10 40 6 3 10 14 10 23 0 14 -2 14 -9 3 -14 -22 -24 24 -11 50 9 15 9 24 1 32
-14 14 -14 47 -1 47 6 0 10 -7 10 -15 0 -11 7 -14 24 -11 23 4 24 2 15 -20 -5
-14 -9 -47 -9 -74 0 -27 -4 -52 -10 -55 -5 -3 -10 -21 -10 -38 l0 -32 193 -54
c165 -47 252 -75 330 -106 15 -6 17 0 17 69 l0 77 -172 -4 c-176 -4 -208 -2
-208 14 0 20 52 29 208 37 89 5 164 11 166 13 4 4 10 889 7 1010 l-1 57 -46
11 c-25 6 -49 9 -54 6 -5 -3 -19 -1 -30 5 -21 11 -20 11 7 63 15 29 49 77 75
108 47 55 48 57 48 125 0 38 0 76 1 84 1 8 1 43 1 78 l-2 62 -405 0 -405 0
-123 -62 c-67 -34 -144 -67 -172 -73 -31 -8 -49 -17 -47 -25 2 -7 -4 -20 -12
-29 -13 -14 -12 -19 10 -40 13 -13 24 -31 24 -41 0 -10 3 -25 6 -34 4 -10 -1
-18 -11 -22 -12 -5 -25 3 -44 25 -35 41 -95 57 -129 35 -12 -8 -27 -12 -33 -8
-23 14 -106 -93 -95 -122 3 -8 2 -23 -3 -33 -10 -17 -14 -96 -8 -137 2 -11 13
-31 25 -44 26 -29 28 -43 5 -36 -88 28 -187 32 -258 11 -47 -14 -47 -14 -10
-9 61 7 168 8 192 0 25 -8 31 -41 23 -136 l-5 -65 -46 -3 -47 -3 -7 38 c-14
74 -43 81 -122 28 -28 -19 -70 -39 -92 -44 -49 -11 -159 -100 -139 -112 13 -9
-5 -13 -42 -11 -8 0 -47 -23 -86 -53 -91 -68 -146 -96 -187 -94 -17 1 -42 -1
-54 -5 -12 -4 -24 -3 -27 2 -9 15 51 35 87 29 22 -3 47 3 83 22 63 31 189 133
205 164 6 12 26 40 44 62 39 49 52 93 30 101 -20 8 -187 -87 -290 -164 -44
-33 -106 -87 -139 -120 l-58 -60 -139 84 c-76 46 -184 109 -241 139 -116 61
-383 185 -399 185 -6 0 -9 -10 -7 -22 2 -15 19 -28 63 -47 110 -48 106 -34 42
-154 -31 -58 -68 -122 -82 -143 -14 -20 -25 -51 -25 -69 0 -30 -3 -33 -37 -38
-21 -3 -688 -4 -1483 -1 -795 2 -1556 4 -1692 4 l-248 0 0 41 0 42 -52 -7
c-29 -4 -89 -11 -133 -16 -44 -6 -181 -23 -305 -39 -124 -16 -227 -27 -230
-24 -9 8 23 21 83 33 32 6 103 26 156 45 53 18 183 61 289 95 l192 61 0 240 0
239 50 0 c39 0 61 7 102 33 29 18 64 37 78 43 43 19 204 95 220 105 36 21 144
70 168 76 23 6 138 58 184 83 10 6 23 10 30 10 7 1 49 16 93 35 l80 34 -85 0
c-79 0 -98 -5 -280 -68z m5150 -21 c4 -25 0 -43 -15 -63 -19 -27 -19 -29 -2
-41 25 -19 21 -24 -15 -23 -31 2 -33 4 -32 40 1 44 -21 51 -36 11 -6 -14 -14
-22 -20 -19 -9 6 -7 26 7 78 5 21 23 23 23 2 0 -27 20 -16 37 20 21 45 46 42
53 -5z m157 -142 c-3 -7 -5 -2 -5 12 0 14 2 19 5 13 2 -7 2 -19 0 -25z m-245
-60 c-18 -18 -15 -27 13 -38 28 -11 30 -22 14 -69 -8 -22 -16 -30 -26 -27 -8
3 -18 6 -23 6 -5 0 -14 15 -21 34 -7 20 -18 33 -28 32 -11 -1 -17 9 -19 28 -3
27 -2 28 27 24 19 -3 32 0 35 9 3 7 13 13 23 13 13 0 14 -3 5 -12z m114 -99
c3 -6 2 -14 -4 -18 -5 -3 -12 -17 -13 -30 -2 -14 -10 -26 -16 -29 -20 -6 -27
25 -13 58 13 31 33 39 46 19z m-316 -3 c0 -12 -62 -94 -91 -121 -34 -31 -31
-21 8 31 13 17 23 35 23 40 0 17 31 54 46 54 8 0 14 -2 14 -4z m464 -28 c14
-54 7 -75 -34 -102 -22 -14 -41 -26 -43 -26 -2 0 -3 26 -2 57 2 52 5 59 31 75
37 23 40 23 48 -4z m-413 -41 c-10 -9 -11 -8 -5 6 3 10 9 15 12 12 3 -3 0 -11
-7 -18z m-17 -29 c-4 -7 -38 -45 -76 -84 -38 -38 -75 -80 -84 -92 -8 -12 -20
-22 -25 -22 -15 0 172 208 189 210 2 0 0 -6 -4 -12z m-209 -128 c-21 -40 -83
-72 -69 -35 4 8 12 15 18 15 7 0 23 11 36 25 31 33 34 32 15 -5z m-445 -250
c-8 -5 -22 -9 -30 -9 -10 0 -8 3 5 9 27 12 43 12 25 0z m396 -59 c55 -25 54
-40 -1 -17 -21 9 -60 16 -87 16 -45 0 -49 2 -37 16 16 19 58 14 125 -15z m659
-41 c-3 -5 -16 -15 -28 -21 -19 -9 -19 -8 3 10 28 23 34 26 25 11z m-333 -54
c12 -18 1 -18 -31 -1 -17 8 -31 22 -31 30 0 13 4 13 28 -2 15 -10 30 -22 34
-27z m-217 -67 c15 -15 -18 -10 -45 6 l-25 15 30 -6 c17 -4 34 -11 40 -15z
m123 -63 c39 -38 72 -76 72 -83 0 -8 9 -26 20 -41 22 -30 100 -243 99 -270 0
-12 -4 -9 -12 8 -63 142 -115 231 -174 301 -38 44 -67 86 -65 94 2 9 -4 18
-12 21 -9 3 -14 10 -11 14 3 5 1 11 -5 15 -15 9 -12 28 3 19 6 -4 45 -39 85
-78z m-1290 -144 c-18 -19 -29 -22 -56 -17 -30 5 -38 1 -96 -54 -34 -34 -65
-59 -68 -55 -3 3 -16 -11 -28 -30 -12 -20 -24 -36 -26 -36 -6 0 32 65 59 101
17 24 18 24 6 1 -20 -43 -3 -33 30 18 18 28 64 81 102 118 41 40 69 75 69 88
0 11 3 24 8 28 4 4 10 -25 14 -65 7 -67 6 -75 -14 -97z m797 161 c-11 -3 -27
-11 -35 -17 -21 -18 -130 -60 -136 -53 -3 3 4 8 17 12 12 4 42 20 67 36 27 17
58 29 76 28 22 -1 25 -3 11 -6z m-4650 -83 c0 -11 -14 -16 -52 -18 -44 -3 -53
-6 -53 -22 0 -15 9 -19 47 -22 35 -2 49 -7 51 -20 3 -14 -6 -17 -45 -20 -41
-3 -48 -6 -51 -25 -3 -20 2 -22 50 -25 41 -2 54 -7 56 -20 3 -16 -6 -18 -72
-18 l-76 0 0 98 c0 54 3 102 7 106 4 4 37 6 73 4 50 -2 65 -6 65 -18z m1223
-88 l3 -101 -33 0 c-18 1 -37 0 -43 -1 -45 -11 -81 39 -71 95 8 43 28 58 71
53 32 -4 35 -2 35 22 0 30 8 42 24 37 7 -2 12 -45 14 -105z m411 95 c14 -18 4
-27 -31 -27 l-28 0 0 -84 c0 -65 -3 -85 -15 -90 -23 -9 -35 26 -35 103 0 69
-1 71 -24 71 -29 0 -44 19 -25 31 23 14 145 11 158 -4z m1099 -25 c2 -12 8
-22 13 -22 5 0 9 -7 9 -15 0 -8 -4 -15 -10 -15 -5 0 -10 -20 -10 -44 0 -37 4
-45 23 -50 22 -6 22 -7 3 -21 -44 -34 -76 -5 -76 67 0 47 -1 50 -22 44 -13 -3
-31 -6 -40 -6 -13 0 -18 -11 -20 -52 -3 -45 -6 -53 -23 -53 -18 0 -20 7 -20
70 l0 70 59 0 c44 0 61 4 64 15 10 37 13 41 29 38 10 -2 19 -13 21 -26z m2987
16 c2 -7 -2 -51 -9 -98 l-14 -85 -1 60 c-1 33 -4 77 -7 98 -6 30 -4 37 10 37
9 0 19 -6 21 -12z m-5487 -50 c17 -15 16 -134 -2 -141 -23 -9 -36 14 -36 63 0
52 -7 65 -27 49 -7 -7 -13 -32 -13 -60 0 -42 -3 -49 -20 -49 -16 0 -19 8 -22
58 -2 43 -7 57 -18 57 -11 0 -16 -14 -18 -50 -7 -102 -52 -94 -52 10 0 34 2
64 5 67 10 10 190 6 203 -4z m164 -5 c12 -11 18 -31 18 -59 0 -34 -5 -47 -27
-64 -15 -11 -31 -19 -37 -16 -47 19 -46 19 -46 -19 0 -29 -3 -36 -17 -33 -15
3 -18 17 -21 92 -2 49 -1 95 2 101 7 18 107 17 128 -2z m143 -3 c0 -9 -11 -16
-27 -18 -25 -3 -28 -7 -28 -43 0 -54 -16 -85 -36 -68 -14 11 -21 129 -8 142 3
3 27 5 52 4 34 -2 47 -6 47 -17z m129 1 c10 -11 16 -30 14 -43 -3 -20 -9 -23
-50 -26 -36 -2 -46 -6 -41 -18 6 -16 49 -19 58 -4 9 15 35 12 35 -4 0 -39 -83
-54 -120 -21 -24 22 -27 81 -4 113 20 29 83 31 108 3z m150 -3 c15 -24 0 -34
-28 -19 -13 8 -30 11 -38 9 -7 -3 8 -14 35 -26 37 -17 47 -26 47 -45 0 -32
-24 -51 -66 -51 -40 0 -70 25 -60 50 6 15 8 16 24 0 19 -16 62 -22 62 -8 0 4
-19 16 -42 27 -45 21 -58 46 -37 71 17 20 88 15 103 -8z m155 13 c10 -6 16
-33 19 -77 l5 -67 -29 6 c-16 3 -36 1 -46 -4 -21 -11 -63 4 -72 26 -10 27 12
54 54 65 22 6 40 15 40 20 0 16 -36 12 -50 -5 -7 -8 -17 -15 -22 -15 -15 0
-21 30 -8 45 14 17 86 20 109 6z m405 -13 c33 -46 16 -68 -50 -68 -19 0 -34
-5 -34 -10 0 -18 30 -23 56 -10 34 19 52 0 24 -25 -27 -25 -76 -23 -103 3 -27
27 -28 83 -2 112 26 29 89 28 109 -2z m366 3 c0 -14 -8 -21 -27 -23 -26 -3
-28 -7 -31 -55 -3 -45 -6 -53 -23 -53 -17 0 -19 7 -19 75 l0 75 50 0 c43 0 50
-3 50 -19z m128 7 c13 -16 19 -119 8 -136 -5 -9 -11 -10 -21 -2 -9 7 -21 7
-40 0 -22 -8 -33 -7 -51 5 -45 29 -21 73 49 89 15 4 25 11 22 16 -9 15 -42 12
-49 -5 -3 -8 -10 -15 -16 -15 -17 0 -23 29 -10 45 15 18 93 20 108 3z m162 -3
c18 -22 24 -98 10 -124 -18 -35 -40 -9 -40 50 0 26 -5 51 -12 55 -18 11 -38
-26 -38 -73 0 -36 -3 -43 -20 -43 -18 0 -20 7 -20 74 l0 74 54 1 c36 0 58 -5
66 -14z m154 -7 c14 -23 0 -35 -24 -20 -23 14 -50 16 -50 3 0 -5 13 -12 29
-16 38 -8 65 -38 56 -63 -13 -43 -106 -47 -122 -6 -9 23 11 38 27 19 15 -18
54 -21 48 -3 -2 6 -20 17 -39 23 -37 13 -50 45 -28 71 17 20 88 15 103 -8z
m175 -12 c30 -63 -19 -137 -75 -116 -21 8 -23 6 -26 -23 -2 -20 -8 -32 -18
-32 -12 0 -16 19 -18 102 l-3 102 63 -2 c59 -2 64 -4 77 -31z m155 12 c33 -47
12 -119 -39 -132 -29 -7 -79 15 -89 39 -12 32 -6 75 14 95 29 29 94 27 114 -2z
m380 0 c33 -46 16 -68 -50 -68 -19 0 -34 -5 -34 -10 0 -17 31 -24 51 -12 21
13 49 16 49 5 -1 -31 -58 -57 -94 -43 -29 11 -56 47 -56 76 0 12 9 33 21 48
27 35 90 37 113 4z m-2480 -257 c22 -25 7 -34 -40 -25 -33 6 -35 8 -20 20 16
11 16 13 -6 17 -16 3 -12 5 13 6 24 1 42 -5 53 -18z m136 5 c0 -11 -50 -46
-67 -46 -9 0 -1 26 14 42 19 21 53 24 53 4z m1995 -375 c-34 -31 -281 -92
-570 -140 -275 -46 -837 -131 -865 -131 -6 0 -10 16 -10 35 0 19 3 34 8 34 4
-1 9 0 12 1 3 1 14 3 25 4 48 7 183 27 340 51 308 48 360 55 380 59 11 2 61 9
110 15 181 23 301 41 340 51 37 10 157 26 215 29 14 0 20 -3 15 -8z"/>
<path d="M4882 4251 c-19 -12 -11 -75 10 -79 25 -5 43 35 29 64 -11 26 -18 28
-39 15z"/>
<path d="M4073 4253 c-19 -7 -16 -72 2 -79 35 -14 61 46 33 74 -13 13 -16 13
-35 5z"/>
<path d="M4347 4254 c-14 -14 -6 -24 19 -24 16 0 24 5 22 13 -5 14 -31 21 -41
11z"/>
<path d="M4663 4199 c-13 -5 -23 -13 -23 -19 0 -16 40 -12 47 5 8 21 2 24 -24
14z"/>
<path d="M5047 4254 c-14 -14 -6 -24 19 -24 16 0 24 5 22 13 -5 14 -31 21 -41
11z"/>
<path d="M5558 4203 c-25 -6 -23 -33 2 -33 11 0 20 2 20 4 0 2 3 11 6 20 6 16
3 17 -28 9z"/>
<path d="M6021 4238 c-11 -30 2 -63 24 -63 10 0 21 9 25 20 10 26 -5 65 -25
65 -9 0 -19 -10 -24 -22z"/>
<path d="M6187 4253 c-14 -13 -7 -74 8 -79 21 -8 45 14 45 40 0 34 -34 59 -53
39z"/>
<path d="M6567 4254 c-14 -14 -6 -24 19 -24 16 0 24 5 22 13 -5 14 -31 21 -41
11z"/>
<path d="M6020 5528 c-19 -12 -107 -68 -196 -125 l-161 -103 -144 -15 c-214
-23 -1064 -136 -1119 -149 -8 -2 410 -4 930 -5 520 0 939 3 932 8 -8 4 -13 10
-12 12 4 10 -22 63 -46 94 -14 18 -21 36 -15 39 10 7 -8 66 -21 66 -4 0 -8 14
-8 30 0 30 -1 31 -37 25 -21 -4 -49 -11 -63 -16 -48 -18 -330 -85 -330 -79 0
7 191 133 310 206 36 22 48 34 35 34 -11 0 -36 -10 -55 -22z"/>
<path d="M8400 5531 c-5 -11 -10 -27 -10 -37 0 -16 2 -16 21 2 20 18 20 18 14
-9 -6 -22 -4 -27 11 -27 32 0 103 56 104 83 0 4 -29 7 -65 7 -53 0 -66 -3 -75
-19z"/>
<path d="M3610 5045 c-13 -15 -6 -37 122 -393 26 -71 76 -94 116 -54 10 10 51
110 92 222 78 218 80 235 24 235 -29 0 -30 -2 -89 -182 -32 -101 -62 -183 -65
-183 -4 0 -31 71 -60 158 -29 86 -59 169 -67 185 -15 31 -52 37 -73 12z"/>
<path d="M4088 5049 c-22 -12 -23 -42 -3 -59 32 -26 81 13 59 48 -14 21 -33
25 -56 11z"/>
<path d="M4650 5045 c-26 -32 13 -81 48 -59 34 22 22 74 -18 74 -10 0 -23 -7
-30 -15z"/>
<path d="M5710 5044 c-12 -14 -9 -31 25 -128 110 -315 128 -348 187 -333 30 8
34 17 98 192 94 257 93 254 79 271 -7 8 -24 14 -38 12 -28 -3 -22 11 -106
-231 -26 -76 -50 -135 -54 -132 -3 4 -33 86 -66 183 -56 165 -62 177 -86 180
-15 2 -32 -4 -39 -14z"/>
<path d="M6180 5045 c-26 -32 13 -81 48 -59 34 22 22 74 -18 74 -10 0 -23 -7
-30 -15z"/>
<path d="M4081 4916 c-8 -9 -11 -62 -9 -166 3 -133 5 -154 21 -164 12 -8 22
-8 35 0 15 10 17 31 20 164 3 157 -2 180 -38 180 -10 0 -23 -6 -29 -14z"/>
<path d="M4298 4909 c-38 -19 -56 -54 -44 -84 9 -24 31 -18 69 20 26 26 43 35
69 35 42 0 67 -17 70 -50 3 -24 -2 -26 -82 -46 -47 -11 -94 -26 -105 -32 -57
-30 -58 -118 -2 -152 41 -26 86 -25 148 1 l50 22 23 -22 c53 -50 65 -23 56
130 -8 138 -16 161 -60 184 -42 22 -146 19 -192 -6z m169 -196 c-10 -62 -76
-100 -126 -72 -28 16 -37 45 -22 68 9 14 89 39 130 40 22 1 23 -2 18 -36z"/>
<path d="M4652 4918 c-8 -8 -12 -66 -12 -192 0 -100 -4 -186 -8 -193 -4 -6
-23 -13 -42 -15 -28 -2 -36 -8 -38 -27 -5 -31 12 -41 69 -41 31 0 55 6 70 19
24 19 24 22 27 226 3 213 0 235 -37 235 -9 0 -22 -5 -29 -12z"/>
<path d="M4895 4916 c-44 -19 -82 -68 -90 -116 -25 -146 66 -237 212 -215 52
8 103 50 103 84 0 30 -27 26 -79 -9 -50 -34 -69 -36 -110 -15 -28 14 -56 68
-45 86 3 5 52 9 109 9 140 0 159 19 113 110 -14 27 -36 50 -58 62 -40 21 -112
23 -155 4z m126 -65 c16 -16 29 -39 29 -50 0 -19 -6 -21 -78 -21 -43 0 -81 3
-85 6 -10 10 14 64 36 79 33 23 66 18 98 -14z"/>
<path d="M5239 4907 c-46 -31 -59 -78 -32 -115 18 -25 36 -33 166 -77 9 -4 22
-15 27 -25 15 -29 -20 -60 -66 -60 -29 0 -44 8 -70 36 -38 39 -67 42 -72 6 -7
-48 62 -92 143 -92 87 0 145 42 145 106 0 50 -28 74 -121 104 -70 22 -85 30
-87 50 -8 49 71 56 120 10 36 -35 41 -36 63 -14 14 14 14 19 2 38 -37 57 -156
75 -218 33z"/>
<path d="M6181 4916 c-8 -9 -11 -62 -9 -166 3 -133 5 -154 21 -164 12 -8 22
-8 35 0 15 10 17 31 20 164 3 157 -2 180 -38 180 -10 0 -23 -6 -29 -14z"/>
<path d="M6355 4918 c-3 -7 -4 -115 -3 -238 l3 -225 24 -3 c34 -5 41 12 41
101 0 42 4 77 8 77 5 0 17 -9 27 -20 24 -26 78 -35 126 -21 84 25 126 160 79
256 -30 63 -71 87 -133 82 -32 -3 -56 -12 -72 -27 -14 -13 -26 -22 -27 -19 -2
2 -8 13 -14 24 -13 24 -52 32 -59 13z m215 -73 c30 -32 39 -109 16 -153 -30
-59 -81 -68 -127 -23 -26 26 -29 36 -29 91 0 51 4 65 25 85 33 34 83 34 115 0z"/>
<path d="M22 4580 l-22 -9 2 -718 3 -718 78 -5 c44 -3 81 -2 84 3 6 11 47 9
59 -3 7 -7 55 -10 124 -8 l113 3 12 48 c15 61 39 85 106 107 53 18 53 19 56
64 3 41 1 47 -26 60 -27 14 -32 13 -80 -12 -28 -15 -49 -31 -48 -37 2 -5 31
-14 65 -20 80 -15 89 -25 23 -25 -29 0 -66 -7 -82 -16 -17 -8 -32 -14 -34 -12
-11 11 17 85 37 98 13 8 52 43 88 77 44 43 77 65 105 72 22 6 85 41 140 78
l100 68 7 295 c7 318 14 368 65 462 23 43 56 68 70 55 2 -3 -9 -47 -25 -99
-17 -51 -35 -133 -41 -183 -12 -97 -27 -485 -19 -485 3 0 56 26 119 58 63 32
142 70 177 85 l62 26 0 83 c1 138 18 316 36 371 31 93 78 150 98 118 3 -5 -5
-43 -19 -85 -30 -91 -51 -220 -61 -365 -6 -94 -5 -104 9 -98 28 11 220 46 289
53 l67 7 6 66 c20 230 27 278 50 329 22 49 48 73 62 58 4 -3 -3 -52 -15 -109
-21 -99 -42 -253 -42 -310 l0 -29 88 6 c48 4 111 9 141 12 l54 6 -6 111 c-14
262 -95 359 -342 406 -128 25 -404 48 -715 61 -303 12 -987 12 -1018 0z m238
-93 c0 -8 -9 -40 -20 -73 -41 -116 -50 -227 -51 -604 0 -235 -3 -347 -10 -331
-17 44 -34 325 -34 591 0 253 1 268 23 322 13 31 32 68 43 82 22 28 49 35 49
13z m403 7 c3 -3 -1 -27 -10 -52 -60 -187 -69 -262 -78 -692 -4 -157 -9 -287
-11 -289 -10 -10 -13 12 -23 163 -13 193 -14 486 -1 618 15 155 82 293 123
252z m-443 -1324 c0 -5 -7 -10 -16 -10 -8 0 -12 5 -9 10 3 6 10 10 16 10 5 0
9 -4 9 -10z"/>
<path d="M7880 4353 c-34 -25 -64 -52 -67 -60 -3 -7 -12 -13 -19 -13 -8 0 -17
-7 -20 -15 -3 -8 -15 -17 -25 -20 -11 -4 -18 -12 -17 -18 4 -16 -113 -175
-129 -176 -10 -1 -53 -60 -53 -73 0 -3 11 -3 25 0 17 3 44 32 92 100 38 53
117 147 177 209 59 62 106 113 103 113 -3 0 -33 -21 -67 -47z"/>
<path d="M2191 4064 c0 -11 3 -14 6 -6 3 7 2 16 -1 19 -3 4 -6 -2 -5 -13z"/>
<path d="M2345 4050 c-3 -5 -2 -10 4 -10 5 0 13 5 16 10 3 6 2 10 -4 10 -5 0
-13 -4 -16 -10z"/>
<path d="M2195 4027 c-4 -10 -5 -21 -1 -24 10 -10 18 4 13 24 -4 17 -4 17 -12
0z"/>
<path d="M2324 4019 c-3 -5 6 -9 20 -9 31 0 34 6 6 13 -11 3 -23 1 -26 -4z"/>
<path d="M2135 4010 c-4 -6 3 -10 14 -10 25 0 27 6 6 13 -8 4 -17 2 -20 -3z"/>
<path d="M3010 4000 c0 -5 5 -10 10 -10 6 0 10 5 10 10 0 6 -4 10 -10 10 -5 0
-10 -4 -10 -10z"/>
<path d="M8155 4004 c-473 -34 -753 -87 -1135 -213 -443 -147 -847 -340 -1380
-659 -204 -122 -240 -145 -240 -152 1 -3 35 -21 77 -40 118 -54 204 -150 203
-227 -1 -15 -7 -46 -15 -68 -8 -22 -15 -49 -15 -61 0 -48 -73 -74 -89 -31 -37
90 -41 120 -27 187 4 20 -6 4 -23 -38 -17 -40 -31 -79 -31 -86 0 -16 96 -123
123 -137 29 -16 57 0 76 44 l18 42 13 -24 c7 -14 19 -56 27 -95 8 -39 23 -90
34 -112 22 -46 69 -222 70 -263 0 -23 1 -24 9 -6 5 11 9 31 9 44 1 33 73 188
137 297 80 138 245 309 394 411 25 17 90 52 145 77 55 26 109 52 120 57 84 40
311 79 465 79 105 0 303 -26 375 -48 33 -11 86 -31 119 -46 32 -14 68 -26 80
-26 11 0 27 -4 35 -9 9 -6 23 -5 36 1 30 14 63 -5 71 -40 11 -53 18 -56 23
-12 5 33 11 46 25 48 27 5 36 -15 36 -80 0 -31 5 -60 10 -63 6 -4 10 21 10 68
l0 75 60 1 c73 1 82 -11 78 -102 -3 -54 -5 -62 -23 -62 -17 0 -21 8 -25 57 -3
31 -9 60 -13 65 -16 15 -37 -31 -37 -79 0 -26 -4 -48 -9 -48 -5 0 23 -31 63
-69 39 -39 94 -97 121 -130 35 -42 57 -61 73 -61 13 0 34 -11 47 -24 20 -20
24 -34 24 -78 -1 -40 8 -74 34 -138 65 -155 107 -356 107 -515 0 -176 -58
-428 -130 -570 -31 -59 -43 -96 -46 -140 -9 -111 -73 -195 -150 -195 -28 0
-45 -11 -102 -67 -37 -38 -107 -93 -154 -123 l-87 -55 0 -87 c-1 -57 -5 -89
-13 -94 -7 -4 -32 -9 -56 -10 -57 -2 -83 20 -92 77 l-7 44 -2 -51 c-1 -54 -19
-81 -46 -70 -10 3 -15 19 -15 46 0 53 -18 52 -22 -2 l-3 -43 -52 -2 c-39 -1
-59 4 -77 18 -29 23 -42 24 -49 5 -8 -21 -62 -29 -103 -16 -28 10 -41 10 -60
0 -19 -11 -26 -11 -39 0 -13 11 -20 11 -40 0 -20 -11 -29 -11 -49 -1 -19 11
-27 10 -45 -1 -20 -11 -24 -11 -37 6 -13 19 -15 19 -49 3 -20 -9 -44 -17 -54
-17 -25 0 -71 38 -71 58 0 12 -8 7 -26 -15 -45 -58 -126 -53 -164 9 -11 18
-20 48 -20 66 0 17 -5 32 -11 32 -45 0 -251 134 -351 229 l-69 64 -68 1 c-59
1 -73 5 -96 26 -35 33 -48 66 -35 91 16 28 42 23 79 -16 52 -56 68 -44 24 18
-29 41 -43 52 -58 49 -31 -5 -48 21 -43 65 4 29 -5 58 -39 129 -24 50 -47 113
-52 140 -5 27 -12 56 -16 65 -3 10 -2 20 3 23 14 8 6 55 -13 76 -18 20 -34
119 -35 218 0 45 7 79 26 123 14 34 23 63 20 66 -3 3 -20 -7 -37 -21 -51 -43
-168 -98 -197 -93 -18 3 -31 -3 -51 -25 -28 -31 -42 -34 -241 -57 -47 -6 -146
-19 -220 -30 -154 -22 -507 -51 -629 -51 -67 0 -90 4 -131 25 -34 17 -50 21
-53 12 -10 -30 -483 -18 -852 22 l-160 17 -52 -54 -51 -55 -61 6 c-33 3 -64 8
-70 12 -6 3 -11 31 -11 60 0 93 -30 272 -66 399 -95 331 -266 529 -422 487
-86 -24 -172 -151 -209 -310 -13 -55 -18 -117 -18 -229 l0 -152 -27 31 c-24
27 -28 41 -29 93 l-2 61 -11 -60 -12 -60 -44 3 c-28 2 -74 18 -123 43 -43 22
-131 58 -195 79 -189 63 -446 152 -456 158 -5 3 -35 4 -67 3 -34 -1 -69 3 -86
12 -15 8 -64 17 -108 21 -57 4 -88 12 -107 26 -16 12 -25 15 -22 7 9 -25 59
-44 269 -106 222 -66 585 -176 797 -242 69 -21 133 -39 142 -39 9 0 16 -6 16
-14 0 -17 -17 -30 -22 -17 -6 16 -851 279 -1053 328 -70 17 -107 21 -125 15
-14 -5 -46 -10 -72 -11 -55 -2 -53 -5 -62 121 -18 248 -121 514 -218 561 -33
16 -40 16 -71 4 -66 -28 -111 -120 -122 -248 -3 -41 -8 -90 -11 -109 l-6 -35
-23 29 c-13 16 -26 49 -29 76 -6 48 15 216 34 266 6 14 10 35 9 47 0 21 -1 21
-8 2 -5 -12 -10 13 -15 71 -3 50 -4 98 -1 106 8 19 -65 27 -290 30 l-160 2 0
-107 c0 -58 3 -108 5 -111 3 -2 101 -7 218 -11 117 -4 215 -11 217 -16 5 -7
-89 -6 -341 5 l-92 4 -6 -59 c-9 -73 -6 -733 3 -747 4 -6 109 -11 260 -13
l254 -4 16 -25 c8 -14 32 -41 52 -60 l37 -35 6 -316 c6 -263 5 -318 -7 -327
-9 -8 -107 -13 -318 -14 l-304 -3 -3 -91 -3 -91 68 -6 c159 -15 519 -19 713
-8 241 14 404 31 668 72 249 38 337 57 622 137 239 66 320 82 320 64 0 -16
-83 -44 -309 -106 -316 -87 -601 -140 -971 -182 -169 -19 -810 -30 -987 -17
l-113 8 0 -182 0 -183 1763 -2 1762 -3 0 -220 0 -220 -1762 -3 -1763 -2 0
-110 0 -110 4990 0 4990 0 0 1844 0 1843 -42 16 c-58 22 -351 110 -468 141
-188 50 -511 107 -740 130 -145 15 -491 27 -585 20z m-930 -604 c0 -9 -11 -16
-27 -18 l-28 -3 0 -84 c0 -67 -3 -84 -16 -89 -32 -12 -44 13 -44 95 0 77 -1
79 -24 79 -14 0 -28 5 -31 10 -14 23 10 31 88 28 65 -2 82 -6 82 -18z m1113
-9 c2 -12 10 -25 18 -28 19 -7 18 -33 -1 -33 -11 0 -15 -12 -15 -45 0 -38 3
-45 20 -45 11 0 20 -6 20 -14 0 -20 -35 -29 -60 -16 -16 9 -20 21 -20 65 0 34
-5 55 -12 58 -10 3 -10 9 -1 28 6 13 14 32 17 42 8 24 30 16 34 -12z m422 9
c24 -24 26 -57 4 -88 -11 -16 -25 -22 -55 -22 -39 0 -39 0 -39 -39 0 -41 -18
-59 -39 -38 -12 12 -16 163 -5 191 10 25 108 22 134 -4z m205 0 c0 -8 -8 -16
-17 -18 -13 -2 -18 3 -18 18 0 15 5 20 18 18 9 -2 17 -10 17 -18z m485 -85 l0
-104 -37 -1 c-21 0 -47 0 -58 -1 -11 0 -28 10 -37 22 -44 54 0 148 62 134 27
-6 30 -4 30 18 0 27 7 37 27 37 10 0 13 -24 13 -105z m-2112 28 c3 -17 -2 -22
-25 -25 -26 -3 -28 -7 -33 -58 -4 -47 -8 -55 -25 -55 -18 0 -20 8 -23 69 -2
38 -1 75 2 82 3 8 22 12 53 11 41 -2 48 -5 51 -24z m121 18 c17 -11 34 -141
21 -154 -4 -5 -16 -4 -27 1 -12 7 -24 7 -36 0 -44 -24 -92 22 -72 69 4 10 7
30 6 45 -2 16 4 30 16 37 22 13 73 14 92 2z m177 -15 c10 -17 14 -42 12 -83
-3 -50 -6 -58 -23 -58 -17 0 -21 8 -25 60 -4 44 -9 60 -20 60 -11 0 -16 -14
-18 -52 -3 -51 -21 -81 -42 -68 -9 6 -15 147 -6 156 2 2 27 5 55 6 44 2 53 -1
67 -21z m142 12 c16 -16 15 -48 -1 -48 -7 0 -18 5 -24 11 -6 6 -17 9 -24 7 -7
-2 5 -13 26 -24 33 -16 40 -24 40 -49 0 -57 -87 -74 -119 -23 -17 28 8 47 32
25 21 -19 38 -22 47 -7 3 5 -7 12 -22 16 -34 8 -63 32 -63 52 0 42 78 70 108
40z m175 -6 c24 -20 30 -66 13 -105 -15 -37 -43 -52 -76 -42 -17 5 -20 2 -20
-23 0 -28 -20 -48 -34 -35 -7 8 -8 208 -1 215 10 10 103 2 118 -10z m161 -3
c59 -47 15 -159 -57 -145 -66 13 -90 93 -42 141 30 30 64 32 99 4z m149 12 c4
0 7 -10 7 -21 0 -14 -7 -20 -24 -20 -28 0 -36 -16 -36 -70 0 -43 -13 -58 -35
-40 -18 15 -21 130 -4 147 8 8 57 11 92 4z m242 -16 c46 -45 29 -75 -41 -75
-19 0 -34 -5 -34 -10 0 -17 31 -24 51 -12 22 14 49 16 49 4 0 -13 -32 -39 -57
-46 -26 -8 -78 16 -87 39 -21 57 16 125 69 125 14 0 37 -11 50 -25z m401 13
c11 -12 -5 -40 -20 -35 -23 9 -36 -15 -36 -64 0 -48 -17 -68 -39 -46 -14 14
-15 129 -1 143 11 11 85 12 96 2z m62 -68 c3 -70 -7 -98 -30 -84 -10 6 -11
148 -1 158 18 18 28 -7 31 -74z m73 24 c18 -54 15 -56 48 29 11 29 28 35 37
13 6 -15 -43 -143 -58 -152 -15 -9 -32 15 -58 78 -22 57 -21 93 2 86 6 -2 19
-26 29 -54z m217 39 c16 -14 21 -32 24 -78 l3 -60 -36 -1 c-20 -1 -41 -4 -48
-8 -7 -4 -23 0 -37 9 -19 12 -24 23 -22 43 2 23 11 30 51 42 27 9 45 19 41 23
-12 12 -41 8 -54 -8 -16 -19 -42 -2 -33 22 13 33 80 42 111 16z m325 6 c26
-12 47 -47 47 -79 0 -34 -43 -73 -80 -73 -37 0 -80 39 -80 73 0 30 20 67 44
78 28 14 40 14 69 1z m-1673 -430 c0 -14 -7 -19 -25 -19 -18 0 -25 5 -25 19 0
11 6 21 13 24 20 7 37 -4 37 -24z m401 -5 c21 -93 2 -210 -29 -190 -13 8 -17
207 -5 220 13 12 28 -1 34 -30z m249 -79 c0 -71 -4 -96 -15 -105 -12 -10 -19
-10 -27 -2 -8 8 -17 8 -30 1 -67 -36 -118 92 -58 146 13 11 30 16 50 13 27 -4
30 -2 30 23 0 30 18 42 38 26 8 -6 12 -40 12 -102z m402 88 c20 -18 24 -53 8
-69 -8 -8 -6 -15 5 -24 8 -7 15 -25 15 -41 0 -41 -32 -59 -107 -59 l-63 0 0
98 c0 54 3 102 7 105 14 15 116 7 135 -10z m-740 -45 c23 -19 33 -147 12 -155
-8 -3 -20 -1 -26 5 -7 7 -18 7 -34 0 -37 -17 -74 4 -74 41 0 16 4 33 10 36 6
4 5 13 -2 25 -27 43 69 83 114 48z m476 -4 c14 -9 22 -26 22 -43 0 -32 -14
-41 -62 -41 -19 0 -28 -4 -25 -12 4 -14 27 -14 65 -3 16 5 22 3 22 -8 0 -23
-29 -41 -67 -41 -45 0 -73 32 -73 83 0 68 64 103 118 65z m356 0 c3 -9 6 -35
6 -59 0 -83 41 -68 50 18 4 37 9 52 20 52 12 0 16 -17 18 -78 l3 -77 -28 2
c-15 1 -38 -2 -50 -6 -36 -12 -63 24 -63 83 0 58 7 81 25 81 7 0 16 -7 19 -16z
m227 -3 c19 -15 21 -22 12 -32 -10 -10 -15 -10 -27 0 -8 7 -23 11 -33 9 -13
-3 -6 -10 24 -22 46 -20 58 -38 42 -67 -23 -43 -107 -44 -124 -1 -10 25 12 38
33 19 20 -19 52 -23 52 -7 0 5 -17 17 -37 25 -56 24 -65 43 -33 75 25 25 61
26 91 1z m163 -2 c48 -38 22 -79 -50 -79 -13 0 -24 -5 -24 -10 0 -17 31 -24
51 -12 22 14 49 16 49 4 0 -5 -9 -17 -20 -27 -53 -48 -138 2 -126 74 10 66 69
90 120 50z m140 11 c26 -10 34 -34 16 -45 -6 -4 -17 -1 -25 5 -8 6 -22 10 -32
8 -12 -3 -3 -11 30 -25 62 -29 64 -69 4 -92 -45 -17 -106 18 -87 49 7 12 12
12 28 -3 20 -19 52 -23 52 -7 0 5 -17 18 -37 27 -83 39 -35 116 51 83z m-8840
-251 c16 -12 25 -27 22 -36 -3 -8 -2 -11 4 -8 5 3 14 -3 19 -14 8 -15 7 -21
-7 -27 -9 -4 -21 -8 -27 -8 -5 -1 -14 -23 -20 -51 -5 -27 -14 -56 -18 -63 -5
-7 -6 -21 -2 -31 3 -12 0 -21 -10 -25 -22 -8 -18 -32 5 -32 11 0 20 3 20 7 0
11 40 18 76 12 30 -5 34 -9 34 -34 0 -27 -2 -29 -43 -29 -24 0 -48 5 -55 12
-10 10 -20 8 -47 -6 -32 -17 -53 -50 -80 -121 -7 -19 -8 -18 -15 5 -9 29 -13
150 -5 150 4 0 20 -7 37 -16 16 -9 28 -11 24 -6 -3 5 -19 15 -36 22 -28 12
-30 15 -30 70 0 40 5 62 15 70 10 8 12 16 6 19 -6 4 -8 17 -4 29 4 17 10 21
25 16 25 -8 38 10 38 54 0 23 -4 31 -12 27 -7 -4 -2 3 11 14 29 26 42 26 75 0z
m-106 -54 c-6 -14 -13 -23 -15 -21 -5 5 15 46 22 46 3 0 -1 -11 -7 -25z m185
-101 c4 -21 1 -25 -14 -21 -13 4 -27 -5 -43 -26 -14 -17 -28 -28 -32 -24 -4 4
-2 13 4 19 7 7 12 21 12 33 0 16 2 17 10 5 7 -12 13 -9 30 13 12 15 23 27 25
27 1 0 5 -12 8 -26z m8456 1 c2 -11 11 -25 20 -32 15 -12 15 -14 -1 -24 -12
-7 -18 -23 -18 -49 0 -33 3 -40 20 -40 28 0 25 -27 -4 -34 -48 -12 -58 2 -68
94 -3 21 -7 25 -33 21 -43 -5 -45 -7 -45 -61 0 -31 -5 -50 -13 -53 -29 -11
-38 9 -35 79 l3 69 59 0 c56 0 60 2 69 28 10 32 40 33 46 2z m-851 -41 c8 -14
10 -14 21 0 8 10 29 16 51 16 68 0 104 -78 61 -131 -14 -18 -29 -24 -60 -24
-52 0 -75 23 -76 72 0 32 -3 38 -23 39 -24 2 -29 -11 -34 -76 -3 -37 -33 -55
-49 -28 -10 15 -12 109 -3 132 9 22 99 22 112 0z m293 5 c21 -11 34 -67 24
-98 -11 -35 -51 -56 -80 -43 -24 11 -25 10 -25 -23 0 -28 -4 -35 -20 -35 -19
0 -20 7 -20 104 l0 104 52 0 c28 1 59 -3 69 -9z m99 -49 c4 -40 9 -55 20 -55
11 0 16 15 20 55 4 47 8 55 25 55 18 0 20 -8 23 -69 3 -71 -8 -100 -29 -79 -8
8 -18 8 -35 1 -18 -8 -29 -7 -49 6 -22 14 -25 23 -25 75 0 62 5 73 30 69 10
-2 16 -19 20 -58z m240 38 c11 -13 19 -32 18 -43 -2 -16 -12 -21 -50 -23 -27
-2 -48 -7 -48 -13 0 -17 30 -22 56 -10 14 6 29 9 34 6 15 -9 0 -33 -29 -45
-80 -33 -144 55 -90 124 27 34 79 36 109 4z m384 1 c54 -43 22 -133 -47 -133
-50 0 -77 27 -77 76 0 71 67 102 124 57z m147 11 c10 -6 19 -17 19 -25 0 -17
-35 -20 -45 -5 -8 13 -35 13 -35 0 0 -6 13 -13 29 -16 17 -4 38 -15 47 -25 38
-43 -33 -97 -88 -68 -31 16 -39 31 -26 46 8 10 15 9 35 -7 24 -18 43 -19 43
-1 0 4 -18 15 -40 24 -32 12 -40 20 -40 41 0 40 55 60 101 36z m-8787 -25 c-9
-14 -19 -24 -21 -21 -7 7 16 46 28 46 5 0 2 -11 -7 -25z m-63 -185 c3 0 5 12
3 28 -2 15 -1 20 2 12 4 -8 24 -32 45 -53 34 -34 37 -41 28 -69 -15 -53 -24
-51 -43 8 -10 31 -19 54 -22 52 -8 -8 18 -133 29 -140 17 -10 -41 -68 -69 -68
-12 0 -27 7 -34 15 -11 13 -10 18 6 30 24 18 34 19 34 1 0 -8 7 -17 16 -20 13
-5 15 -2 9 11 -4 10 -14 50 -22 88 -7 39 -18 78 -23 87 -13 24 -12 41 3 57 10
10 14 7 21 -13 6 -14 13 -26 17 -26z m1957 -16 c57 -34 129 -158 147 -254 6
-34 6 -34 -7 -10 -8 14 -22 25 -35 25 -20 0 -123 -87 -123 -104 0 -5 -9 -7
-20 -4 -11 3 -20 0 -20 -6 0 -5 -7 -8 -15 -5 -9 4 -15 0 -15 -10 0 -8 11 -18
25 -22 14 -3 25 -10 25 -14 0 -20 -13 -38 -24 -34 -21 8 -63 -34 -98 -96 -18
-33 -36 -60 -40 -60 -11 0 -28 69 -35 148 l-6 73 56 -27 c32 -16 57 -34 57
-41 0 -7 5 -13 10 -13 16 0 11 26 -9 44 -10 9 -38 22 -62 29 l-44 13 -3 56
c-2 31 1 71 7 90 l9 33 1 -30 c2 -41 13 -56 42 -53 20 3 23 -1 21 -19 -4 -27
48 -64 79 -56 21 6 22 8 9 38 -7 18 -8 18 -15 3 -6 -15 -11 -13 -39 16 -80 85
-81 86 -66 96 12 8 10 10 -7 10 -13 0 -23 6 -23 14 0 17 37 106 44 106 3 0 0
-11 -6 -25 -6 -14 -8 -28 -4 -32 11 -12 76 59 76 84 0 29 -7 29 -39 1 -14 -13
-10 -6 8 15 29 31 42 37 74 37 21 0 51 -7 65 -16z m-2028 -108 c0 -29 -9 -56
-19 -56 -9 0 -31 45 -31 63 0 7 11 14 25 15 20 1 25 -3 25 -22z m7915 -20 c36
-15 60 -49 51 -72 -8 -20 -34 -17 -46 6 -12 22 -49 27 -68 8 -7 -7 -12 -28
-12 -48 0 -42 14 -60 47 -60 15 0 27 9 35 25 13 29 41 30 46 2 5 -25 -24 -66
-56 -78 -40 -16 -98 5 -117 41 -24 47 -19 113 10 149 14 16 36 32 48 34 12 2
23 5 25 6 1 0 18 -5 37 -13z m289 -12 c3 -9 6 -51 6 -94 0 -91 -5 -110 -31
-110 -17 0 -19 9 -19 110 0 101 2 110 19 110 10 0 22 -7 25 -16z m401 -9 c0
-28 -29 -25 -33 3 -3 19 0 23 15 20 10 -2 18 -12 18 -23z m-487 -61 c47 -53
12 -134 -58 -134 -30 0 -43 6 -59 26 -36 45 -21 115 28 133 34 12 61 5 89 -25z
m234 9 c10 -9 18 -29 18 -45 0 -27 -2 -28 -50 -28 -40 0 -48 -3 -44 -15 7 -17
49 -20 59 -5 9 14 35 13 35 -2 0 -45 -84 -64 -120 -28 -24 24 -27 86 -4 118
19 27 78 30 106 5z m178 -73 c0 -105 -11 -125 -69 -125 -46 0 -77 24 -67 50 5
15 8 15 35 -1 32 -19 61 -13 61 11 0 13 -4 14 -20 5 -44 -23 -82 13 -82 77 0
53 24 73 88 71 l54 -2 0 -86z m78 12 c2 -59 0 -73 -13 -78 -23 -9 -27 -1 -33
55 -6 66 4 103 26 99 14 -3 18 -17 20 -76z m152 58 c31 -31 27 -93 -6 -119
-35 -28 -69 -26 -99 4 -52 52 -21 135 50 135 22 0 43 -8 55 -20z m154 -2 c14
-23 0 -35 -24 -20 -22 14 -50 16 -50 4 0 -4 19 -16 43 -27 50 -24 60 -55 25
-79 -41 -29 -108 -14 -108 24 0 24 17 26 41 4 13 -12 22 -13 36 -6 16 9 12 13
-30 31 -37 16 -47 25 -47 44 0 12 6 29 12 35 18 18 89 11 102 -10z m-6788 -84
c-37 -34 -40 -41 -30 -68 9 -23 24 -19 25 7 l0 22 9 -22 c11 -28 20 -30 13 -5
-3 12 4 25 21 36 l26 16 0 -70 0 -70 -52 -1 c-29 -1 -61 0 -71 1 -15 1 -17 -3
-12 -22 7 -23 80 -123 96 -134 12 -7 11 -74 0 -74 -5 0 -12 7 -15 16 -3 8 -10
13 -15 10 -5 -3 -16 13 -26 36 -9 23 -23 51 -32 62 -14 20 -15 18 -9 -24 4
-25 14 -75 22 -112 13 -55 18 -66 32 -61 12 5 10 -1 -7 -20 l-24 -26 -19 25
c-11 13 -31 68 -45 122 -14 53 -28 99 -30 102 -2 2 -8 -2 -13 -10 -7 -11 -10
-8 -10 13 0 40 -17 33 -52 -23 -32 -51 -48 -68 -27 -27 27 51 73 107 79 96 4
-6 10 0 14 15 3 14 11 26 16 26 13 0 28 -32 23 -47 -5 -14 24 -30 34 -19 3 3
1 12 -6 20 -6 8 -14 37 -18 65 -3 28 -10 54 -14 57 -5 3 -6 -3 -2 -13 6 -16 5
-16 -10 -4 -24 19 -12 31 34 31 25 0 38 4 34 10 -12 19 69 115 87 104 6 -4 -5
-21 -26 -40z m56 -180 c3 -3 -1 -19 -9 -35 -18 -36 -39 -25 -29 15 6 24 25 34
38 20z m-246 -201 c-12 -53 -22 -73 -36 -73 -10 0 -50 72 -50 88 0 5 21 13 48
19 26 6 47 11 48 12 1 0 -4 -20 -10 -46z m62 -77 c-25 -19 -23 -24 14 -34 47
-12 48 -32 1 -32 -36 0 -83 22 -83 39 0 8 59 40 75 40 6 0 2 -6 -7 -13z m2622
-268 c22 -40 40 -79 40 -85 0 -14 -53 -44 -72 -41 -6 2 -18 -9 -25 -23 -31
-62 49 -199 116 -199 21 0 31 5 31 15 0 8 14 22 31 30 24 13 33 14 45 4 18
-14 84 -131 84 -147 0 -6 -14 -19 -31 -27 -28 -15 -32 -15 -48 -1 -16 15 -18
14 -17 -5 1 -26 -42 -44 -81 -34 -48 12 -154 131 -204 231 -74 143 -86 232
-38 272 12 9 37 32 57 50 52 48 65 43 112 -40z m3400 -23 c17 -16 35 -45 40
-64 13 -47 13 -146 0 -193 -30 -108 -153 -152 -224 -81 -31 31 -34 68 -6 83
18 9 25 6 48 -19 44 -52 89 -34 107 41 l7 27 -32 -15 c-77 -39 -170 24 -170
116 0 48 26 98 62 120 49 31 128 24 168 -15z m295 11 c43 -28 58 -63 63 -144
7 -129 -30 -211 -106 -232 -71 -19 -158 30 -150 84 5 33 51 33 72 2 27 -42 76
-33 95 17 15 39 14 62 -1 49 -45 -36 -135 -16 -162 37 -24 45 -21 122 6 156
42 54 126 68 183 31z m315 -5 c43 -30 60 -77 60 -166 -1 -139 -48 -205 -146
-205 -64 0 -104 28 -107 75 -2 26 2 30 24 33 19 2 31 -4 43 -22 11 -18 25 -26
45 -26 35 0 50 17 58 65 6 36 5 37 -17 25 -42 -23 -100 -15 -133 19 -43 42
-49 120 -15 171 40 59 128 74 188 31z m310 0 c57 -40 80 -162 51 -268 -17 -61
-69 -103 -127 -103 -76 0 -114 29 -114 86 0 34 43 33 66 -1 21 -32 67 -34 88
-3 19 27 23 89 4 70 -7 -7 -34 -12 -61 -12 -40 0 -53 5 -77 28 -70 71 -39 200
55 225 31 8 88 -2 115 -22z m-3800 -81 l0 -50 48 0 c27 0 51 -2 53 -4 3 -3 3
-23 1 -45 l-4 -41 -49 0 -49 0 0 -44 c0 -48 -7 -54 -52 -48 -26 4 -28 8 -28
48 l0 44 -45 0 -45 0 0 45 0 45 45 0 45 0 0 50 0 50 40 0 40 0 0 -50z m2621
-110 c21 -12 25 -40 7 -58 -16 -16 -130 -16 -146 0 -17 17 -15 45 6 57 22 14
108 14 133 1z m-2351 -514 c0 -95 -11 -126 -36 -105 -9 7 -19 7 -33 -1 -41
-21 -84 20 -84 82 0 52 32 83 75 74 24 -5 28 -2 28 17 0 31 19 50 37 36 9 -8
13 -39 13 -103z m328 5 c3 -106 -5 -134 -30 -113 -9 7 -19 7 -28 2 -24 -15
-39 -12 -65 15 -18 18 -25 35 -25 65 0 54 29 83 76 78 33 -4 34 -3 34 30 0 26
4 33 18 30 15 -3 17 -17 20 -107z m1692 -6 c0 -81 -3 -104 -15 -108 -8 -4 -17
-2 -20 3 -3 6 -16 5 -32 -1 -41 -15 -77 16 -81 70 -5 61 19 94 64 89 29 -3 34
-1 34 17 0 26 18 45 36 38 11 -4 14 -30 14 -108z m-2910 85 c24 -24 25 -39 4
-47 -10 -4 -22 1 -30 11 -13 18 -54 19 -56 1 -1 -5 18 -17 43 -26 26 -10 50
-27 59 -42 13 -24 13 -28 -6 -54 -17 -22 -30 -29 -65 -31 -37 -2 -49 1 -68 22
-25 26 -23 56 3 56 9 0 20 -9 26 -21 8 -14 19 -19 38 -17 40 5 33 30 -13 48
-58 22 -65 28 -65 60 0 55 88 82 130 40z m713 6 c3 -7 0 -19 -6 -25 -8 -8 -8
-14 1 -23 12 -12 17 -104 6 -132 -3 -9 -15 -16 -25 -16 -18 0 -19 8 -18 105 2
93 4 105 19 105 10 0 20 -6 23 -14z m2814 1 c3 -5 0 -14 -5 -19 -8 -8 -8 -17
-1 -30 5 -10 9 -46 7 -81 -3 -54 -5 -62 -23 -62 -18 0 -20 8 -23 68 -2 39 2
74 8 82 14 16 -7 25 -35 15 -18 -7 -19 -8 -2 -15 21 -9 23 -35 2 -35 -12 0
-15 -13 -15 -55 0 -42 -4 -57 -16 -62 -22 -8 -34 14 -34 69 0 28 -5 48 -12 51
-10 4 -10 8 0 23 6 11 16 29 22 41 8 20 16 22 65 21 31 -1 59 -6 62 -11z m236
-1 c3 -7 0 -19 -6 -25 -8 -8 -8 -14 1 -23 14 -14 16 -116 3 -137 -5 -8 -16
-11 -25 -8 -12 5 -16 21 -16 69 0 35 4 70 10 78 5 9 5 19 -1 27 -6 7 -8 17 -4
23 9 14 32 12 38 -4z m565 -9 c2 -12 -3 -17 -17 -17 -12 0 -21 6 -21 13 0 31
32 34 38 4z m-4164 -48 c29 -23 35 -63 10 -73 -9 -3 -32 -6 -52 -6 -34 0 -35
-1 -19 -17 14 -15 21 -15 37 -5 23 14 50 16 50 4 0 -22 -40 -43 -76 -40 -53 4
-81 43 -68 95 15 60 70 80 118 42z m131 11 c5 -8 11 -7 20 0 8 7 19 9 25 5 15
-9 13 -180 -2 -192 -39 -31 -128 -18 -128 18 0 21 20 25 37 8 13 -13 55 -8 60
8 3 8 -6 10 -30 6 -29 -4 -37 -1 -55 22 -29 37 -28 80 3 110 25 26 59 33 70
15z m125 -48 c6 -57 12 -67 35 -59 10 4 15 20 15 49 0 51 12 73 34 65 13 -5
16 -22 16 -80 l0 -74 -57 -1 c-32 0 -64 4 -70 10 -14 11 -18 129 -6 142 16 15
28 -4 33 -52z m231 42 c15 -18 3 -31 -31 -36 -23 -3 -25 -8 -28 -55 -3 -45 -6
-53 -23 -53 -17 0 -19 7 -19 73 0 41 2 76 5 78 11 12 85 7 96 -7z m384 0 c22
-23 18 -151 -5 -145 -8 2 -21 3 -27 2 -76 -7 -93 1 -93 47 0 14 8 26 23 31 73
29 73 28 54 36 -11 5 -24 2 -35 -7 -19 -17 -42 -13 -42 7 0 39 94 60 125 29z
m1685 6 c21 -13 32 -130 14 -150 -10 -10 -17 -11 -25 -3 -8 8 -20 8 -39 1 -53
-18 -100 33 -65 72 11 12 13 20 6 25 -16 9 -13 31 5 49 17 17 80 21 104 6z
m331 -39 c17 -47 20 -46 38 12 12 36 33 48 46 27 4 -6 -10 -53 -30 -105 -30
-77 -42 -96 -61 -101 -13 -3 -31 -4 -39 0 -22 8 -18 36 5 36 32 0 33 20 5 89
-15 35 -24 70 -21 78 11 27 40 8 57 -36z m280 38 c11 -5 25 -22 30 -37 13 -33
-9 -52 -58 -52 -18 0 -33 -5 -33 -10 0 -19 28 -22 54 -5 24 16 26 16 32 0 18
-45 -84 -67 -118 -25 -28 35 -24 94 8 119 30 23 55 26 85 10z m337 -5 c23 -16
30 -54 10 -54 -6 0 -19 7 -29 16 -27 25 -49 11 -49 -31 0 -30 3 -35 24 -35 13
0 29 7 36 15 15 18 30 11 30 -15 0 -23 -28 -40 -67 -40 -34 0 -46 8 -62 39
-39 72 41 151 107 105z m233 5 c11 -5 25 -22 30 -37 13 -33 -9 -52 -59 -52
-23 0 -32 -4 -29 -12 4 -14 27 -14 65 -3 28 9 31 -19 3 -35 -60 -31 -121 3
-121 69 0 62 58 99 111 70z m94 1 c4 -7 12 -7 25 0 27 14 37 13 60 -10 14 -14
20 -33 20 -67 0 -56 -11 -78 -34 -70 -12 5 -16 20 -16 57 0 36 -4 52 -15 57
-23 8 -29 -2 -35 -60 -4 -39 -9 -53 -22 -55 -16 -3 -18 5 -18 71 0 40 3 77 7
80 9 10 21 9 28 -3z m243 -6 c12 -8 22 -21 22 -29 0 -23 -20 -28 -41 -9 -25
23 -53 9 -57 -29 -5 -38 28 -53 61 -27 26 21 37 17 37 -11 0 -40 -86 -53 -120
-19 -29 29 -27 84 5 115 28 29 61 32 93 9z m90 -67 c3 -72 1 -77 -18 -77 -18
0 -20 6 -20 73 0 41 3 77 7 81 18 18 28 -7 31 -77z m145 71 c11 -9 18 -34 22
-78 l6 -66 -60 -1 c-65 -2 -85 10 -79 49 2 17 14 26 46 36 23 8 42 18 42 23 0
13 -27 11 -50 -3 -31 -20 -48 4 -21 31 23 23 68 28 94 9z m-3165 -126 c4 -27
-24 -75 -41 -69 -12 4 -20 61 -12 85 8 23 50 10 53 -16z"/>
<path d="M8670 3355 c0 -23 4 -26 28 -23 19 2 27 9 27 23 0 14 -8 21 -27 23
-24 3 -28 0 -28 -23z"/>
<path d="M9351 3308 c-16 -45 13 -84 44 -58 28 24 12 80 -22 80 -8 0 -17 -10
-22 -22z"/>
<path d="M7385 3319 c-4 -6 -5 -12 -3 -14 7 -7 48 7 48 16 0 13 -37 11 -45 -2z"/>
<path d="M7395 3259 c-4 -6 -4 -13 -1 -16 8 -8 36 5 36 17 0 13 -27 13 -35 -1z"/>
<path d="M7880 3311 c-13 -26 -13 -33 4 -56 12 -16 16 -17 30 -6 19 16 21 52
4 69 -17 17 -26 15 -38 -7z"/>
<path d="M8047 3323 c-10 -10 -8 -56 3 -73 13 -20 44 -1 48 29 5 35 -30 66
-51 44z"/>
<path d="M8437 3324 c-14 -14 -6 -24 19 -24 16 0 24 5 22 13 -5 14 -31 21 -41
11z"/>
<path d="M9198 3269 c-25 -14 -22 -29 6 -29 20 0 36 16 36 36 0 7 -25 4 -42
-7z"/>
<path d="M9524 3317 c-3 -9 -4 -28 -2 -44 2 -22 8 -28 28 -28 23 0 25 4 25 40
0 34 -3 40 -23 43 -13 2 -24 -3 -28 -11z"/>
<path d="M8462 2848 c-17 -17 -15 -53 4 -69 14 -11 18 -10 30 6 17 23 17 30 4
56 -12 22 -21 24 -38 7z"/>
<path d="M8870 2889 c0 -16 5 -20 27 -17 17 2 29 10 31 21 3 13 -3 17 -27 17
-25 0 -31 -4 -31 -21z"/>
<path d="M8870 2805 c0 -21 5 -25 30 -25 19 0 33 6 37 16 7 19 -13 34 -44 34
-18 0 -23 -6 -23 -25z"/>
<path d="M8145 2849 c-4 -6 -5 -12 -3 -14 7 -7 48 7 48 16 0 13 -37 11 -45 -2z"/>
<path d="M8145 2790 c-8 -12 20 -24 35 -15 5 3 10 10 10 16 0 12 -37 12 -45
-1z"/>
<path d="M8630 2850 c0 -5 12 -10 26 -10 14 0 23 4 19 10 -3 6 -15 10 -26 10
-10 0 -19 -4 -19 -10z"/>
<path d="M9377 2853 c-14 -13 -6 -23 18 -23 16 0 25 6 25 15 0 15 -31 21 -43
8z"/>
<path d="M700 2641 c0 -5 7 -11 14 -14 10 -4 13 -1 9 9 -6 15 -23 19 -23 5z"/>
<path d="M721 2544 c0 -11 3 -14 6 -6 3 7 2 16 -1 19 -3 4 -6 -2 -5 -13z"/>
<path d="M612 2455 c2 -19 9 -31 21 -33 22 -4 21 7 -4 38 l-20 25 3 -30z"/>
<path d="M668 2412 c-10 -2 -18 -9 -18 -17 0 -15 30 -29 41 -18 12 13 -5 39
-23 35z"/>
<path d="M8477 2413 c-13 -12 -7 -50 9 -63 22 -19 49 9 40 44 -6 25 -33 35
-49 19z"/>
<path d="M8654 2406 c-11 -28 0 -61 21 -61 16 0 20 7 20 35 0 25 -5 36 -18 38
-9 2 -20 -3 -23 -12z"/>
<path d="M8990 2415 c-11 -13 -9 -15 15 -15 16 0 25 5 23 12 -7 19 -24 20 -38
3z"/>
<path d="M9377 2418 c-32 -18 -16 -83 19 -76 14 2 20 13 22 39 3 40 -12 54
-41 37z"/>
<path d="M2615 2209 c-4 -11 -4 -23 -1 -26 3 -4 6 1 6 10 0 18 25 23 35 7 12
-19 33 -11 28 10 -8 28 -59 28 -68 -1z"/>
<path d="M2720 2183 c0 -5 9 -18 20 -28 11 -10 20 -14 20 -8 0 5 -9 18 -20 28
-11 10 -20 14 -20 8z"/>
<path d="M2672 2158 c-13 -13 -14 -78 -3 -118 6 -19 9 -6 15 48 8 79 6 88 -12
70z"/>
<path d="M2750 2113 c-8 -13 -13 -14 -16 -5 -3 6 -9 12 -14 12 -8 0 -12 -18
-26 -123 l-7 -49 29 15 c16 9 44 31 63 51 32 33 33 37 21 65 -18 44 -36 56
-50 34z m-25 -113 c-4 -12 -9 -19 -12 -17 -3 3 -2 15 2 27 4 12 9 19 12 17 3
-3 2 -15 -2 -27z"/>
<path d="M2576 2071 c-4 -5 -3 -17 0 -26 4 -9 2 -20 -4 -24 -8 -5 -5 -17 8
-39 25 -41 41 -42 30 -1 -5 17 -9 34 -8 38 5 44 -11 77 -26 52z"/>
<path d="M2655 1959 c-9 -14 3 -59 15 -59 6 0 10 7 10 15 0 8 -4 15 -9 15 -5
0 -7 9 -4 20 6 21 -2 27 -12 9z"/>
<path d="M8709 1989 c-15 -28 4 -72 29 -67 21 4 29 53 11 74 -16 19 -26 18
-40 -7z"/>
<path d="M8957 2004 c-13 -13 -7 -24 14 -24 11 0 19 5 17 12 -5 14 -22 21 -31
12z"/>
<path d="M9112 1998 c-30 -30 1 -94 33 -68 25 20 13 80 -15 80 -3 0 -11 -5
-18 -12z"/>
<path d="M9350 1989 c-9 -16 -9 -28 -1 -45 15 -33 49 -31 57 3 13 49 -34 84
-56 42z"/>
<path d="M2710 1835 c0 -8 5 -15 10 -15 6 0 10 7 10 15 0 8 -4 15 -10 15 -5 0
-10 -7 -10 -15z"/>
<path d="M8562 1138 c-7 -7 -12 -30 -12 -53 0 -47 13 -65 50 -65 14 0 31 5 38
12 15 15 16 72 2 99 -12 22 -59 26 -78 7z"/>
<path d="M8882 1144 c-33 -23 -32 -97 2 -119 65 -43 116 76 53 120 -26 19 -28
19 -55 -1z"/>
<path d="M9192 1144 c-32 -22 -32 -97 2 -119 65 -43 119 53 61 110 -28 29 -33
30 -63 9z"/>
<path d="M9502 1144 c-17 -12 -22 -25 -22 -59 0 -34 5 -47 22 -59 30 -21 44
-20 68 4 26 26 26 80 0 108 -25 26 -38 27 -68 6z"/>
<path d="M5980 486 c-18 -23 -8 -61 17 -64 17 -3 24 3 29 22 4 16 1 32 -6 41
-16 19 -24 19 -40 1z"/>
<path d="M6314 476 c-10 -26 0 -51 21 -51 16 0 20 7 20 30 0 33 -30 49 -41 21z"/>
<path d="M7995 469 c-9 -26 16 -55 40 -45 25 9 16 60 -12 64 -15 2 -23 -3 -28
-19z"/>
<path d="M5287 493 c-15 -14 -6 -23 23 -23 22 0 28 4 24 15 -6 15 -35 20 -47
8z"/>
<path d="M5444 486 c-11 -29 1 -61 23 -64 17 -3 24 3 29 22 10 42 -38 80 -52
42z"/>
<path d="M6160 437 l-25 -10 23 -5 c26 -4 36 1 31 16 -3 6 -14 5 -29 -1z"/>
<path d="M7834 484 c-18 -15 -18 -15 6 -10 14 3 29 6 33 6 5 0 5 5 2 10 -9 14
-18 13 -41 -6z"/>
<path d="M7850 437 c-22 -9 -23 -11 -6 -14 10 -3 23 0 29 6 16 16 5 20 -23 8z"/>
<path d="M8460 485 c-11 -13 -8 -15 18 -15 24 0 30 4 26 15 -4 8 -12 15 -19
15 -7 0 -18 -7 -25 -15z"/>
<path d="M9027 486 c-5 -12 1 -16 24 -16 20 0 29 4 27 13 -7 18 -45 20 -51 3z"/>
<path d="M9607 443 c-10 -3 -16 -10 -14 -16 6 -19 41 -14 45 6 4 17 1 18 -31
10z"/>
<path d="M2067 3887 c101 -63 206 -180 388 -432 173 -240 220 -280 378 -320
142 -36 306 -44 687 -34 476 12 1035 38 1169 54 137 16 155 27 116 73 -22 26
-34 32 -65 32 -21 0 -40 4 -42 8 -5 14 -225 183 -352 271 -132 92 -326 210
-427 262 -45 22 -80 33 -119 35 -30 1 -134 7 -230 13 -328 20 -953 10 -1252
-20 l-117 -12 -33 25 c-34 26 -131 78 -145 78 -4 0 16 -15 44 -33z m1083 -138
c19 -1 -7 -5 -59 -10 -51 -5 -99 -14 -107 -20 -8 -6 -14 -29 -14 -50 0 -33 4
-41 26 -49 27 -11 28 -22 4 -84 -8 -23 -12 -25 -33 -15 -17 8 -31 30 -47 77
-13 37 -25 72 -27 79 -10 28 130 86 187 78 19 -3 51 -5 70 -6z m140 -9 c0 -5
-7 -10 -15 -10 -8 0 -15 5 -15 10 0 6 7 10 15 10 8 0 15 -4 15 -10z m396 -14
c155 -53 536 -268 647 -367 41 -35 77 -84 77 -104 0 -11 -76 -4 -252 24 -101
16 -237 37 -303 47 -66 9 -129 20 -141 24 -13 5 -30 33 -49 82 -15 40 -54 128
-86 196 l-58 122 48 0 c26 0 79 -11 117 -24z m-1126 10 c0 -3 -25 -25 -56 -50
-71 -58 -98 -59 -141 -6 -18 21 -33 41 -33 44 0 3 37 7 83 9 45 1 97 4 115 5
17 1 32 0 32 -2z m809 -201 c47 -129 48 -135 20 -135 -38 0 -44 11 -45 75 -1
41 -8 74 -23 103 -21 41 -21 42 -2 42 15 0 26 -18 50 -85z"/>
<path d="M3734 3911 c-10 -10 -2 -20 19 -27 12 -3 61 -22 109 -40 48 -19 96
-34 107 -34 25 0 201 71 201 82 0 4 -15 10 -32 13 -39 6 -398 12 -404 6z"/>
<path d="M7165 3900 c-8 -13 15 -13 35 0 12 8 11 10 -7 10 -12 0 -25 -4 -28
-10z"/>
<path d="M3735 3871 c22 -10 51 -21 65 -25 14 -3 7 2 -15 13 -22 10 -51 21
-65 25 -14 3 -7 -2 15 -13z"/>
<path d="M1450 3865 c-149 -33 -317 -108 -427 -189 -35 -25 -63 -52 -63 -60 0
-24 60 -129 93 -164 63 -67 152 -98 520 -186 172 -41 235 -60 252 -76 31 -29
116 -48 240 -55 145 -8 215 -23 215 -46 0 -10 -4 -21 -10 -24 -5 -3 -10 -12
-10 -19 0 -12 23 -20 80 -31 8 -2 30 -6 48 -10 32 -7 32 -7 26 24 -8 39 8 46
81 34 30 -6 55 -8 55 -5 0 23 -310 481 -409 605 -77 95 -154 152 -256 186 -59
20 -94 24 -220 27 -106 3 -169 -1 -215 -11z m-60 -188 c0 -28 -6 -48 -17 -58
-10 -8 -26 -26 -35 -39 -17 -24 -17 -23 -11 50 6 75 13 90 46 90 13 0 17 -9
17 -43z m420 -27 c0 -28 -4 -40 -14 -40 -11 0 -12 8 -4 40 6 22 12 40 14 40 2
0 4 -18 4 -40z m263 7 c3 -7 -4 -24 -14 -38 -18 -24 -19 -24 -19 -2 0 43 21
70 33 40z m74 -274 c39 -18 110 -101 119 -140 4 -16 1 -30 -9 -41 -15 -14 -28
-13 -149 11 -170 34 -249 42 -276 28 -15 -8 -22 -7 -30 2 -14 17 -24 80 -15
93 36 51 284 83 360 47z"/>
<path d="M4605 3849 c-11 -17 15 -29 63 -29 36 0 43 3 40 18 -2 13 -15 18 -50
20 -27 2 -49 -2 -53 -9z"/>
<path d="M4135 3840 c3 -5 18 -10 33 -10 21 0 24 2 12 10 -20 13 -53 13 -45 0z"/>
<path d="M810 3251 c0 -6 7 -11 16 -11 9 0 22 -7 28 -15 8 -11 18 -13 41 -6
31 9 26 14 -27 25 -14 3 -33 9 -42 12 -9 3 -16 1 -16 -5z"/>
<path d="M1545 3040 c-19 -8 -19 -9 3 -9 12 -1 22 4 22 9 0 6 -1 10 -2 9 -2 0
-12 -4 -23 -9z"/>
<path d="M1460 3010 c8 -5 20 -10 25 -10 6 0 3 5 -5 10 -8 5 -19 10 -25 10 -5
0 -3 -5 5 -10z"/>
<path d="M1502 2989 c3 -9 23 -15 54 -16 52 -3 41 8 -25 22 -26 5 -32 4 -29
-6z"/>
<path d="M2868 2892 c-78 -4 -76 -22 10 -92 37 -30 139 -126 228 -212 114
-112 174 -163 208 -177 70 -31 336 -71 466 -71 82 0 167 37 286 125 15 11 33
13 67 9 41 -6 47 -10 57 -40 35 -105 221 -165 518 -166 100 0 158 4 165 11 8
8 7 11 -2 11 -8 0 -49 16 -92 36 -75 34 -89 36 -296 55 -120 10 -225 21 -233
23 -8 2 95 1 230 -2 232 -5 247 -6 275 -27 51 -38 59 -40 41 -13 -15 23 -15
27 4 51 54 68 224 56 256 -18 l13 -30 6 31 7 30 156 32 c87 17 166 34 177 37
l20 7 -20 -17 c-11 -9 -65 -29 -120 -46 -155 -47 -185 -59 -201 -85 -9 -13
-30 -32 -47 -43 l-32 -21 48 0 c26 0 80 7 120 16 84 18 252 97 267 124 15 29
12 55 -10 75 -11 10 -20 24 -20 32 0 16 -14 16 -60 3 -147 -43 -478 -72 -815
-72 -281 0 -400 14 -487 55 -29 14 -129 49 -223 77 -93 29 -275 95 -405 147
-302 123 -422 153 -562 145z m195 -47 c94 -24 306 -107 289 -113 -5 -1 -77 22
-159 52 -82 30 -167 58 -189 61 -21 4 -46 11 -54 16 -28 16 14 10 113 -16z
m-105 -35 c37 -17 84 -48 105 -68 31 -30 39 -34 47 -22 7 12 12 12 22 2 9 -9
9 -12 0 -12 -7 0 -12 -4 -12 -10 0 -5 8 -10 18 -10 11 0 17 -8 17 -24 0 -25
-2 -25 -49 8 -28 19 -29 19 -23 1 5 -10 -13 0 -41 26 -81 74 -103 91 -148 111
-24 10 -44 21 -44 23 0 13 48 2 108 -25z m192 -61 c0 -5 -9 -9 -20 -9 -19 0
-26 11 -14 23 8 8 34 -3 34 -14z m320 -65 l25 -15 -25 7 c-14 3 -29 10 -34 15
-16 14 6 10 34 -7z m-75 -13 c3 -5 -8 -18 -24 -27 -17 -10 -28 -21 -25 -26 3
-4 -6 -8 -20 -8 -14 0 -26 5 -26 12 0 8 -6 6 -16 -4 -17 -17 -12 -54 6 -43 5
3 10 -3 10 -14 0 -13 7 -21 18 -21 9 0 26 -8 37 -17 19 -15 19 -15 -7 -9 -16
4 -28 2 -28 -3 0 -15 66 -62 88 -64 12 0 19 -4 16 -8 -7 -12 133 -31 167 -24
26 6 29 9 18 21 -23 22 -96 34 -110 18 -6 -8 -23 -14 -38 -13 -25 0 -25 1 -5
9 33 13 37 27 10 34 -18 4 -25 15 -29 43 -4 20 -4 39 -1 42 8 8 91 4 105 -5 9
-5 7 -11 -7 -21 -23 -17 -10 -44 27 -54 13 -4 20 -8 14 -8 -13 -2 25 -31 41
-31 7 0 40 27 74 59 56 54 59 60 40 66 -12 4 -19 9 -17 12 3 2 19 -3 35 -11
38 -19 38 -61 2 -79 -13 -7 -26 -19 -28 -27 -5 -13 -3 -13 12 -1 9 8 20 11 23
7 10 -10 -18 -26 -45 -26 -15 0 -26 -7 -29 -19 -9 -36 -155 -42 -255 -11 -47
14 -74 31 -108 65 -25 24 -62 60 -82 79 -44 39 -51 61 -14 45 20 -9 27 -7 50
16 41 41 108 66 121 46z m135 -11 c8 -5 11 -10 5 -10 -5 0 -17 5 -25 10 -8 5
-10 10 -5 10 6 0 17 -5 25 -10z m80 -30 c8 -5 11 -10 5 -10 -5 0 -17 5 -25 10
-8 5 -10 10 -5 10 6 0 17 -5 25 -10z m80 -30 c8 -5 11 -10 5 -10 -5 0 -17 5
-25 10 -8 5 -10 10 -5 10 6 0 17 -5 25 -10z m-320 -41 c-7 -11 -14 -18 -17
-15 -8 8 5 36 17 36 7 0 7 -6 0 -21z m50 -15 c0 -14 -3 -14 -15 -4 -8 7 -15
14 -15 16 0 2 7 4 15 4 8 0 15 -7 15 -16z m10 -34 c0 -5 -5 -10 -11 -10 -5 0
-7 5 -4 10 3 6 8 10 11 10 2 0 4 -4 4 -10z m296 -101 c3 -6 16 -8 29 -5 17 4
24 1 27 -12 5 -16 -2 -19 -53 -20 -58 -2 -87 11 -48 21 12 3 18 10 14 16 -3 6
1 11 9 11 8 0 18 -5 22 -11z"/>
<path d="M5554 2822 c9 -28 10 -85 2 -128 -9 -52 18 -131 35 -101 7 12 6 37
-4 82 -13 55 -13 65 -1 65 7 0 20 -12 28 -27 14 -26 15 -26 16 -6 0 12 -5 34
-11 50 -7 15 -12 39 -13 52 -1 18 -7 24 -29 27 -22 2 -27 -1 -23 -14z"/>
<path d="M5467 2573 c-4 -3 -7 -11 -7 -17 0 -6 5 -5 12 2 6 6 9 14 7 17 -3 3
-9 2 -12 -2z"/>
<path d="M1391 2483 c-1 -29 -4 -53 -8 -54 -5 0 -40 -2 -80 -3 -39 -1 -75 -4
-78 -8 -3 -3 37 -22 89 -43 53 -20 100 -44 106 -53 8 -14 9 -12 10 11 0 15 1
27 3 27 1 0 34 -12 72 -26 103 -37 103 -38 120 -20 14 14 13 17 -14 31 -17 8
-39 15 -50 15 -28 0 -129 39 -138 53 -4 7 -13 37 -19 67 l-12 55 -1 -52z"/>
<path d="M4870 2438 l-25 -10 30 -14 c54 -24 87 -10 53 24 -14 14 -25 14 -58
0z"/>
<path d="M4978 2423 c12 -10 30 -29 40 -42 16 -21 19 -22 25 -7 9 22 -34 66
-64 66 l-21 0 20 -17z"/>
<path d="M4814 2405 c-10 -24 3 -45 38 -60 18 -7 34 -12 35 -11 9 8 -14 47
-38 65 -25 19 -30 20 -35 6z"/>
<path d="M4910 2374 c0 -35 46 -55 80 -34 13 8 12 11 -5 24 -19 15 -75 22 -75
10z"/>
<path d="M4827 2329 c7 -7 15 -10 18 -7 3 3 -2 9 -12 12 -14 6 -15 5 -6 -5z"/>
<path d="M4985 2320 c-13 -6 -15 -9 -5 -9 8 0 22 4 30 9 18 12 2 12 -25 0z"/>
<path d="M4868 2313 c7 -3 16 -2 19 1 4 3 -2 6 -13 5 -11 0 -14 -3 -6 -6z"/>
<path d="M1670 2288 c0 -6 3 -9 6 -5 4 3 13 0 21 -8 13 -14 43 -21 43 -11 0 3
-7 12 -16 20 -18 19 -54 21 -54 4z"/>
<path d="M5757 2279 c-4 -13 -7 -36 -7 -51 0 -16 -4 -28 -9 -28 -5 0 -15 -21
-21 -47 -6 -27 -14 -58 -17 -71 -5 -21 -2 -23 23 -20 16 2 29 -2 29 -8 0 -17
-74 -96 -84 -90 -5 3 -11 -4 -14 -16 -5 -19 6 -37 23 -38 3 0 31 24 63 53 47
42 59 59 62 89 5 37 -17 184 -33 228 l-9 24 -6 -25z m-10 -176 c-3 -10 -5 -2
-5 17 0 19 2 27 5 18 2 -10 2 -26 0 -35z"/>
<path d="M3204 2186 c-7 -18 38 -125 109 -261 33 -62 50 -84 77 -97 58 -28
554 -86 566 -66 10 15 -7 46 -33 63 -14 10 -84 33 -156 51 -71 18 -143 42
-160 53 -18 11 -70 58 -116 105 l-84 85 104 -38 c57 -21 131 -50 164 -65 92
-41 263 -146 280 -172 20 -31 87 -69 172 -98 38 -13 84 -31 102 -41 50 -25 31
-5 -80 87 -267 221 -401 290 -709 368 -161 41 -228 48 -236 26z m26 -21 c0
-27 22 -63 36 -58 7 2 11 10 8 17 -3 7 2 13 10 13 18 0 41 -50 32 -72 -9 -25
-26 -17 -27 13 0 23 -1 24 -8 7 -9 -21 11 -73 33 -87 6 -4 11 -11 11 -15 0
-12 34 -58 43 -58 4 0 7 -11 7 -25 l1 -25 124 0 c86 -1 144 -6 187 -18 34 -9
89 -20 122 -23 34 -4 66 -13 72 -21 9 -10 9 -12 -2 -8 -8 3 -43 9 -79 15 -36
5 -103 16 -150 23 -51 9 -118 12 -167 9 -114 -7 -119 -2 -204 171 -72 148 -75
157 -59 157 6 0 10 -7 10 -15z m220 -215 c0 -5 3 -15 6 -24 4 -11 1 -16 -10
-16 -9 0 -16 4 -16 10 0 5 -6 7 -12 5 -23 -8 -36 9 -31 42 l5 33 29 -21 c16
-11 29 -24 29 -29z"/>
<path d="M5547 2101 c-75 -42 -148 -60 -352 -86 -338 -43 -627 -46 -900 -11
-99 13 -184 20 -189 16 -12 -12 271 -293 321 -319 23 -11 53 -21 65 -21 13 0
18 -3 12 -8 -7 -4 52 -7 130 -8 110 -1 124 1 66 6 l-75 6 86 2 c105 2 364 27
501 47 110 17 231 50 263 72 11 7 39 50 63 96 23 45 40 71 37 57 -11 -46 13 2
39 82 42 124 38 128 -67 69z m53 -86 c-16 -47 -23 -40 -8 8 6 20 13 35 16 33
2 -3 -1 -21 -8 -41z"/>
<path d="M5228 1713 c7 -3 16 -2 19 1 4 3 -2 6 -13 5 -11 0 -14 -3 -6 -6z"/>
<path d="M5153 1703 c9 -2 23 -2 30 0 6 3 -1 5 -18 5 -16 0 -22 -2 -12 -5z"/>
<path d="M5073 1693 c9 -2 25 -2 35 0 9 3 1 5 -18 5 -19 0 -27 -2 -17 -5z"/>
<path d="M4983 1683 c9 -2 25 -2 35 0 9 3 1 5 -18 5 -19 0 -27 -2 -17 -5z"/>
<path d="M4868 1673 c12 -2 30 -2 40 0 9 3 -1 5 -23 4 -22 0 -30 -2 -17 -4z"/>
<path d="M2990 619 c-7 -11 -9 -23 -6 -26 7 -8 56 25 56 37 0 19 -39 10 -50
-11z"/>
<path d="M174 562 c-48 -38 -58 -113 -24 -170 35 -57 108 -66 157 -20 29 27
31 68 4 68 -11 0 -23 -9 -26 -20 -9 -29 -39 -42 -68 -31 -28 11 -37 29 -37 75
0 71 58 99 104 50 24 -27 46 -26 46 2 0 8 -11 26 -25 39 -30 31 -98 34 -131 7z"/>
<path d="M433 568 c-18 -23 -75 -185 -71 -204 6 -30 28 -28 41 5 11 29 15 31
59 31 33 0 48 -4 48 -13 0 -7 6 -22 14 -33 13 -17 16 -17 30 -4 14 13 11 26
-27 120 -33 82 -47 106 -63 108 -11 2 -25 -3 -31 -10z m42 -84 c19 -47 20 -44
-16 -44 -24 0 -30 3 -25 16 3 9 9 27 12 40 8 32 11 31 29 -12z"/>
<path d="M600 465 l0 -116 78 3 c60 2 77 6 77 18 0 11 -14 16 -52 18 l-53 3 0
79 c0 91 -5 110 -31 110 -18 0 -19 -9 -19 -115z"/>
<path d="M797 574 c-11 -12 -8 -222 3 -229 6 -4 18 -1 26 6 22 18 16 222 -6
227 -9 1 -19 0 -23 -4z"/>
<path d="M890 561 c-11 -21 -14 -169 -4 -195 5 -12 21 -16 73 -16 58 0 71 3
90 24 43 46 36 157 -12 191 -13 9 -44 15 -79 15 -46 0 -59 -4 -68 -19z m120
-41 c24 -24 26 -77 4 -108 -11 -15 -25 -22 -50 -22 l-34 0 0 68 c0 38 3 72 7
75 13 14 54 6 73 -13z"/>
<path d="M1159 553 c-69 -176 -77 -213 -49 -213 6 0 19 13 28 30 14 25 23 30
57 30 34 0 43 -5 57 -30 9 -17 22 -30 28 -30 25 0 20 36 -20 135 -37 93 -45
105 -66 105 -17 0 -28 -8 -35 -27z m61 -104 c0 -5 -11 -9 -25 -9 -28 0 -29 4
-14 50 l12 32 13 -32 c8 -18 14 -36 14 -41z"/>
<path d="M1334 567 c-2 -7 -3 -58 -2 -113 l3 -99 66 -3 c79 -3 105 13 119 73
15 64 -5 125 -47 144 -34 16 -132 14 -139 -2z m121 -40 c22 -17 27 -96 6 -120
-8 -10 -28 -17 -47 -17 l-34 0 0 75 0 75 28 0 c16 0 36 -6 47 -13z"/>
<path d="M1777 553 c-29 -58 -69 -183 -64 -198 10 -23 25 -18 42 15 14 27 21
30 60 30 30 0 45 -4 45 -13 0 -7 6 -22 14 -33 13 -17 16 -18 31 -3 14 14 12
24 -27 120 -35 83 -48 105 -65 107 -16 2 -26 -5 -36 -25z m50 -78 c11 -34 11
-35 -17 -35 -28 0 -28 1 -17 35 6 19 13 35 17 35 4 0 11 -16 17 -35z"/>
<path d="M1905 570 c-11 -17 5 -30 36 -30 l29 0 0 -94 c0 -77 3 -95 16 -100
29 -11 34 4 34 100 l0 94 36 0 c28 0 35 3 32 18 -3 14 -17 17 -90 20 -52 2
-89 -1 -93 -8z"/>
<path d="M2127 574 c-4 -4 -7 -56 -7 -116 l0 -108 86 0 c76 0 85 2 82 18 -3
14 -16 18 -66 20 -62 3 -63 3 -60 30 3 25 7 27 58 32 40 4 55 9 55 20 0 11
-14 16 -58 18 -54 3 -58 5 -55 25 3 19 11 23 63 27 44 4 60 9 60 20 0 12 -16
16 -75 18 -42 1 -79 0 -83 -4z"/>
<path d="M2334 567 c-2 -7 -3 -60 -2 -118 2 -84 6 -104 18 -104 12 0 16 17 20
75 l5 75 45 -72 c48 -77 64 -90 87 -72 10 9 13 36 11 118 -3 98 -4 106 -23
106 -18 0 -21 -8 -25 -70 l-5 -70 -45 73 c-43 70 -73 91 -86 59z"/>
<path d="M2589 551 c-24 -25 -29 -37 -29 -81 0 -28 7 -64 15 -80 17 -33 71
-55 115 -45 33 7 72 50 68 74 -5 24 -35 25 -43 1 -10 -31 -52 -44 -81 -25 -20
13 -24 24 -24 65 0 79 48 105 101 54 46 -44 70 -4 24 41 -37 37 -106 35 -146
-4z"/>
<path d="M2807 574 c-10 -11 -8 -222 2 -228 5 -4 16 -3 25 0 24 9 19 227 -4
232 -9 1 -19 0 -23 -4z"/>
<path d="M2919 551 c-25 -25 -29 -37 -29 -84 0 -45 5 -61 26 -86 53 -64 156
-44 182 34 17 52 7 107 -25 139 -21 21 -35 26 -75 26 -41 0 -54 -5 -79 -29z
m129 -44 c31 -64 -15 -139 -71 -118 -44 17 -54 117 -15 143 27 17 72 4 86 -25z"/>
<path d="M3152 463 c2 -97 6 -118 18 -118 12 0 16 17 20 75 l5 75 45 -72 c47
-77 64 -91 87 -72 10 9 13 36 11 118 -3 98 -4 106 -23 106 -18 0 -21 -8 -25
-73 l-5 -73 -34 58 c-44 75 -60 93 -83 93 -17 0 -18 -8 -16 -117z"/>
<path d="M7664 476 c-10 -26 0 -51 21 -51 16 0 20 7 20 30 0 33 -30 49 -41 21z"/>
<path d="M6640 471 c0 -6 9 -20 20 -31 16 -16 25 -18 40 -10 27 14 25 27 -4
34 -13 3 -31 9 -40 12 -9 3 -16 1 -16 -5z"/>
<path d="M7440 430 c-9 -6 -10 -10 -3 -10 6 0 15 5 18 10 8 12 4 12 -15 0z"/>
<path d="M1550 371 c0 -11 5 -23 10 -26 8 -5 7 -11 -1 -21 -14 -17 -6 -29 15
-21 18 7 31 50 22 72 -8 23 -46 19 -46 -4z"/>
</g>
</svg>
